<mxfile host="app.diagrams.net" modified="2023-10-26T16:41:05.681Z" agent="Mozilla/5.0 (Windows NT 10.0; Win64; x64) AppleWebKit/537.36 (KHTML, like Gecko) Chrome/118.0.0.0 Safari/537.36 Edg/118.0.2088.61" etag="4ftXtXR_hAqQ6IQf8hEm" version="22.0.8" type="device">
  <diagram id="gdgvgw9XpqPNcjsiNwLU" name="Страница — 1">
    <mxGraphModel dx="1822" dy="1035" grid="1" gridSize="12" guides="1" tooltips="1" connect="1" arrows="1" fold="1" page="1" pageScale="1" pageWidth="1169" pageHeight="827" math="0" shadow="0">
      <root>
        <mxCell id="0" />
        <mxCell id="1" parent="0" />
        <mxCell id="0sg28JpC3CKvE0VFNH8c-15" value="" style="shape=table;startSize=0;container=1;collapsible=0;childLayout=tableLayout;fontSize=16;" vertex="1" parent="1">
          <mxGeometry x="118" y="94" width="933" height="722" as="geometry" />
        </mxCell>
        <mxCell id="0sg28JpC3CKvE0VFNH8c-28" style="shape=tableRow;horizontal=0;startSize=0;swimlaneHead=0;swimlaneBody=0;strokeColor=inherit;top=0;left=0;bottom=0;right=0;collapsible=0;dropTarget=0;fillColor=none;points=[[0,0.5],[1,0.5]];portConstraint=eastwest;fontSize=16;" vertex="1" parent="0sg28JpC3CKvE0VFNH8c-15">
          <mxGeometry width="933" height="135" as="geometry" />
        </mxCell>
        <mxCell id="0sg28JpC3CKvE0VFNH8c-29" value="Уровень интерфейса" style="shape=partialRectangle;html=1;whiteSpace=wrap;connectable=0;strokeColor=inherit;overflow=hidden;fillColor=none;top=0;left=0;bottom=0;right=0;pointerEvents=1;fontSize=16;" vertex="1" parent="0sg28JpC3CKvE0VFNH8c-28">
          <mxGeometry width="102" height="135" as="geometry">
            <mxRectangle width="102" height="135" as="alternateBounds" />
          </mxGeometry>
        </mxCell>
        <mxCell id="0sg28JpC3CKvE0VFNH8c-30" style="shape=partialRectangle;html=1;whiteSpace=wrap;connectable=0;strokeColor=inherit;overflow=hidden;fillColor=none;top=0;left=0;bottom=0;right=0;pointerEvents=1;fontSize=16;" vertex="1" parent="0sg28JpC3CKvE0VFNH8c-28">
          <mxGeometry x="102" width="831" height="135" as="geometry">
            <mxRectangle width="831" height="135" as="alternateBounds" />
          </mxGeometry>
        </mxCell>
        <mxCell id="0sg28JpC3CKvE0VFNH8c-16" value="" style="shape=tableRow;horizontal=0;startSize=0;swimlaneHead=0;swimlaneBody=0;strokeColor=inherit;top=0;left=0;bottom=0;right=0;collapsible=0;dropTarget=0;fillColor=none;points=[[0,0.5],[1,0.5]];portConstraint=eastwest;fontSize=16;" vertex="1" parent="0sg28JpC3CKvE0VFNH8c-15">
          <mxGeometry y="135" width="933" height="227" as="geometry" />
        </mxCell>
        <mxCell id="0sg28JpC3CKvE0VFNH8c-17" value="Уровень прикладной логики" style="shape=partialRectangle;html=1;whiteSpace=wrap;connectable=0;strokeColor=inherit;overflow=hidden;fillColor=none;top=0;left=0;bottom=0;right=0;pointerEvents=1;fontSize=16;" vertex="1" parent="0sg28JpC3CKvE0VFNH8c-16">
          <mxGeometry width="102" height="227" as="geometry">
            <mxRectangle width="102" height="227" as="alternateBounds" />
          </mxGeometry>
        </mxCell>
        <mxCell id="0sg28JpC3CKvE0VFNH8c-18" value="" style="shape=partialRectangle;html=1;whiteSpace=wrap;connectable=0;strokeColor=inherit;overflow=hidden;fillColor=none;top=0;left=0;bottom=0;right=0;pointerEvents=1;fontSize=16;" vertex="1" parent="0sg28JpC3CKvE0VFNH8c-16">
          <mxGeometry x="102" width="831" height="227" as="geometry">
            <mxRectangle width="831" height="227" as="alternateBounds" />
          </mxGeometry>
        </mxCell>
        <mxCell id="0sg28JpC3CKvE0VFNH8c-20" value="" style="shape=tableRow;horizontal=0;startSize=0;swimlaneHead=0;swimlaneBody=0;strokeColor=inherit;top=0;left=0;bottom=0;right=0;collapsible=0;dropTarget=0;fillColor=none;points=[[0,0.5],[1,0.5]];portConstraint=eastwest;fontSize=16;" vertex="1" parent="0sg28JpC3CKvE0VFNH8c-15">
          <mxGeometry y="362" width="933" height="180" as="geometry" />
        </mxCell>
        <mxCell id="0sg28JpC3CKvE0VFNH8c-21" value="Уровень предметной области" style="shape=partialRectangle;html=1;whiteSpace=wrap;connectable=0;strokeColor=inherit;overflow=hidden;fillColor=none;top=0;left=0;bottom=0;right=0;pointerEvents=1;fontSize=16;" vertex="1" parent="0sg28JpC3CKvE0VFNH8c-20">
          <mxGeometry width="102" height="180" as="geometry">
            <mxRectangle width="102" height="180" as="alternateBounds" />
          </mxGeometry>
        </mxCell>
        <mxCell id="0sg28JpC3CKvE0VFNH8c-22" value="" style="shape=partialRectangle;html=1;whiteSpace=wrap;connectable=0;strokeColor=inherit;overflow=hidden;fillColor=none;top=0;left=0;bottom=0;right=0;pointerEvents=1;fontSize=16;" vertex="1" parent="0sg28JpC3CKvE0VFNH8c-20">
          <mxGeometry x="102" width="831" height="180" as="geometry">
            <mxRectangle width="831" height="180" as="alternateBounds" />
          </mxGeometry>
        </mxCell>
        <mxCell id="0sg28JpC3CKvE0VFNH8c-24" value="" style="shape=tableRow;horizontal=0;startSize=0;swimlaneHead=0;swimlaneBody=0;strokeColor=inherit;top=0;left=0;bottom=0;right=0;collapsible=0;dropTarget=0;fillColor=none;points=[[0,0.5],[1,0.5]];portConstraint=eastwest;fontSize=16;" vertex="1" parent="0sg28JpC3CKvE0VFNH8c-15">
          <mxGeometry y="542" width="933" height="180" as="geometry" />
        </mxCell>
        <mxCell id="0sg28JpC3CKvE0VFNH8c-25" value="Уровень данных" style="shape=partialRectangle;html=1;whiteSpace=wrap;connectable=0;strokeColor=inherit;overflow=hidden;fillColor=none;top=0;left=0;bottom=0;right=0;pointerEvents=1;fontSize=16;" vertex="1" parent="0sg28JpC3CKvE0VFNH8c-24">
          <mxGeometry width="102" height="180" as="geometry">
            <mxRectangle width="102" height="180" as="alternateBounds" />
          </mxGeometry>
        </mxCell>
        <mxCell id="0sg28JpC3CKvE0VFNH8c-26" value="" style="shape=partialRectangle;html=1;whiteSpace=wrap;connectable=0;strokeColor=inherit;overflow=hidden;fillColor=none;top=0;left=0;bottom=0;right=0;pointerEvents=1;fontSize=16;" vertex="1" parent="0sg28JpC3CKvE0VFNH8c-24">
          <mxGeometry x="102" width="831" height="180" as="geometry">
            <mxRectangle width="831" height="180" as="alternateBounds" />
          </mxGeometry>
        </mxCell>
        <mxCell id="0sg28JpC3CKvE0VFNH8c-38" value="" style="edgeStyle=orthogonalEdgeStyle;rounded=0;orthogonalLoop=1;jettySize=auto;html=1;entryX=0.5;entryY=0;entryDx=0;entryDy=0;exitX=0.478;exitY=0.568;exitDx=0;exitDy=0;exitPerimeter=0;" edge="1" parent="1" source="0sg28JpC3CKvE0VFNH8c-1" target="0sg28JpC3CKvE0VFNH8c-31">
          <mxGeometry relative="1" as="geometry">
            <Array as="points">
              <mxPoint x="309" y="34" />
            </Array>
          </mxGeometry>
        </mxCell>
        <mxCell id="0sg28JpC3CKvE0VFNH8c-1" value="Автор" style="shape=umlActor;verticalLabelPosition=bottom;verticalAlign=top;html=1;outlineConnect=0;" vertex="1" parent="1">
          <mxGeometry x="238.5" width="30" height="60" as="geometry" />
        </mxCell>
        <mxCell id="0sg28JpC3CKvE0VFNH8c-39" value="" style="edgeStyle=orthogonalEdgeStyle;rounded=0;orthogonalLoop=1;jettySize=auto;html=1;entryX=0.5;entryY=0;entryDx=0;entryDy=0;exitX=0.499;exitY=0.559;exitDx=0;exitDy=0;exitPerimeter=0;" edge="1" parent="1" source="0sg28JpC3CKvE0VFNH8c-2" target="0sg28JpC3CKvE0VFNH8c-32">
          <mxGeometry relative="1" as="geometry">
            <Array as="points">
              <mxPoint x="423" y="34" />
            </Array>
          </mxGeometry>
        </mxCell>
        <mxCell id="0sg28JpC3CKvE0VFNH8c-2" value="Читатель" style="shape=umlActor;verticalLabelPosition=bottom;verticalAlign=top;html=1;outlineConnect=0;" vertex="1" parent="1">
          <mxGeometry x="352.5" width="30" height="60" as="geometry" />
        </mxCell>
        <mxCell id="0sg28JpC3CKvE0VFNH8c-40" value="" style="edgeStyle=orthogonalEdgeStyle;rounded=0;orthogonalLoop=1;jettySize=auto;html=1;entryX=0.5;entryY=0;entryDx=0;entryDy=0;exitX=0.5;exitY=0.5;exitDx=0;exitDy=0;exitPerimeter=0;" edge="1" parent="1" source="0sg28JpC3CKvE0VFNH8c-3" target="0sg28JpC3CKvE0VFNH8c-33">
          <mxGeometry relative="1" as="geometry">
            <Array as="points">
              <mxPoint x="474" y="34" />
              <mxPoint x="534" y="34" />
            </Array>
          </mxGeometry>
        </mxCell>
        <mxCell id="0sg28JpC3CKvE0VFNH8c-3" value="" style="shape=umlActor;verticalLabelPosition=bottom;verticalAlign=top;html=1;outlineConnect=0;" vertex="1" parent="1">
          <mxGeometry x="458.5" y="2" width="30" height="60" as="geometry" />
        </mxCell>
        <mxCell id="0sg28JpC3CKvE0VFNH8c-41" style="edgeStyle=orthogonalEdgeStyle;rounded=0;orthogonalLoop=1;jettySize=auto;html=1;entryX=0.5;entryY=0;entryDx=0;entryDy=0;exitX=0.5;exitY=0.5;exitDx=0;exitDy=0;exitPerimeter=0;" edge="1" parent="1" source="0sg28JpC3CKvE0VFNH8c-4" target="0sg28JpC3CKvE0VFNH8c-34">
          <mxGeometry relative="1" as="geometry">
            <Array as="points">
              <mxPoint x="593" y="34" />
              <mxPoint x="648" y="34" />
            </Array>
          </mxGeometry>
        </mxCell>
        <mxCell id="0sg28JpC3CKvE0VFNH8c-4" value="Рекламодатель" style="shape=umlActor;verticalLabelPosition=bottom;verticalAlign=top;html=1;outlineConnect=0;" vertex="1" parent="1">
          <mxGeometry x="577.5" width="30" height="60" as="geometry" />
        </mxCell>
        <mxCell id="0sg28JpC3CKvE0VFNH8c-42" style="edgeStyle=orthogonalEdgeStyle;rounded=0;orthogonalLoop=1;jettySize=auto;html=1;entryX=0.5;entryY=0;entryDx=0;entryDy=0;exitX=0.5;exitY=0.5;exitDx=0;exitDy=0;exitPerimeter=0;" edge="1" parent="1" source="0sg28JpC3CKvE0VFNH8c-5" target="0sg28JpC3CKvE0VFNH8c-35">
          <mxGeometry relative="1" as="geometry">
            <Array as="points">
              <mxPoint x="990" y="34" />
              <mxPoint x="930" y="34" />
            </Array>
          </mxGeometry>
        </mxCell>
        <mxCell id="0sg28JpC3CKvE0VFNH8c-5" value="Администратор" style="shape=umlActor;verticalLabelPosition=bottom;verticalAlign=top;html=1;outlineConnect=0;" vertex="1" parent="1">
          <mxGeometry x="975" width="30" height="60" as="geometry" />
        </mxCell>
        <mxCell id="0sg28JpC3CKvE0VFNH8c-6" value="Бета-ридер" style="text;html=1;align=center;verticalAlign=middle;resizable=0;points=[];autosize=1;strokeColor=none;fillColor=none;" vertex="1" parent="1">
          <mxGeometry x="430.5" y="63" width="96" height="24" as="geometry" />
        </mxCell>
        <mxCell id="0sg28JpC3CKvE0VFNH8c-129" style="edgeStyle=orthogonalEdgeStyle;rounded=0;orthogonalLoop=1;jettySize=auto;html=1;entryX=0.25;entryY=0;entryDx=0;entryDy=0;fillColor=#fad7ac;strokeColor=#b46504;" edge="1" parent="1" target="0sg28JpC3CKvE0VFNH8c-54">
          <mxGeometry relative="1" as="geometry">
            <mxPoint x="284" y="178" as="sourcePoint" />
            <mxPoint x="285" y="492" as="targetPoint" />
            <Array as="points">
              <mxPoint x="284" y="336" />
              <mxPoint x="284" y="336" />
            </Array>
          </mxGeometry>
        </mxCell>
        <mxCell id="0sg28JpC3CKvE0VFNH8c-130" style="edgeStyle=orthogonalEdgeStyle;rounded=0;orthogonalLoop=1;jettySize=auto;html=1;entryX=0;entryY=0.55;entryDx=0;entryDy=0;exitX=0.25;exitY=1;exitDx=0;exitDy=0;entryPerimeter=0;fillColor=#fad7ac;strokeColor=#b46504;" edge="1" parent="1" source="0sg28JpC3CKvE0VFNH8c-31" target="0sg28JpC3CKvE0VFNH8c-46">
          <mxGeometry relative="1" as="geometry">
            <mxPoint x="288" y="180" as="sourcePoint" />
            <Array as="points">
              <mxPoint x="283" y="180" />
              <mxPoint x="283" y="180" />
              <mxPoint x="283" y="372" />
              <mxPoint x="300" y="372" />
            </Array>
          </mxGeometry>
        </mxCell>
        <mxCell id="0sg28JpC3CKvE0VFNH8c-131" style="edgeStyle=orthogonalEdgeStyle;rounded=0;orthogonalLoop=1;jettySize=auto;html=1;entryX=0;entryY=0.75;entryDx=0;entryDy=0;exitX=0.25;exitY=1;exitDx=0;exitDy=0;fillColor=#fad7ac;strokeColor=#b46504;" edge="1" parent="1" source="0sg28JpC3CKvE0VFNH8c-31" target="0sg28JpC3CKvE0VFNH8c-44">
          <mxGeometry relative="1" as="geometry">
            <Array as="points">
              <mxPoint x="284" y="298" />
            </Array>
          </mxGeometry>
        </mxCell>
        <mxCell id="0sg28JpC3CKvE0VFNH8c-132" style="edgeStyle=orthogonalEdgeStyle;rounded=0;orthogonalLoop=1;jettySize=auto;html=1;entryX=0.25;entryY=1;entryDx=0;entryDy=0;exitX=0.25;exitY=1;exitDx=0;exitDy=0;fillColor=#fad7ac;strokeColor=#b46504;" edge="1" parent="1" source="0sg28JpC3CKvE0VFNH8c-31" target="0sg28JpC3CKvE0VFNH8c-52">
          <mxGeometry relative="1" as="geometry">
            <mxPoint x="288" y="180" as="sourcePoint" />
            <Array as="points">
              <mxPoint x="284" y="408" />
              <mxPoint x="792" y="408" />
              <mxPoint x="792" y="394" />
            </Array>
          </mxGeometry>
        </mxCell>
        <mxCell id="0sg28JpC3CKvE0VFNH8c-31" value="Модуль Интерфейса Автора" style="rounded=0;whiteSpace=wrap;html=1;fillColor=#ffe6cc;strokeColor=#d79b00;" vertex="1" parent="1">
          <mxGeometry x="258" y="130" width="102" height="48" as="geometry" />
        </mxCell>
        <mxCell id="0sg28JpC3CKvE0VFNH8c-136" style="edgeStyle=orthogonalEdgeStyle;rounded=0;orthogonalLoop=1;jettySize=auto;html=1;entryX=1;entryY=0.5;entryDx=0;entryDy=0;fillColor=#b0e3e6;strokeColor=#0e8088;" edge="1" parent="1" source="0sg28JpC3CKvE0VFNH8c-32" target="0sg28JpC3CKvE0VFNH8c-46">
          <mxGeometry relative="1" as="geometry" />
        </mxCell>
        <mxCell id="0sg28JpC3CKvE0VFNH8c-137" style="edgeStyle=orthogonalEdgeStyle;rounded=0;orthogonalLoop=1;jettySize=auto;html=1;entryX=0;entryY=0.25;entryDx=0;entryDy=0;fillColor=#b0e3e6;strokeColor=#0e8088;" edge="1" parent="1" source="0sg28JpC3CKvE0VFNH8c-32" target="0sg28JpC3CKvE0VFNH8c-44">
          <mxGeometry relative="1" as="geometry">
            <Array as="points">
              <mxPoint x="423" y="274" />
            </Array>
          </mxGeometry>
        </mxCell>
        <mxCell id="0sg28JpC3CKvE0VFNH8c-138" style="edgeStyle=orthogonalEdgeStyle;rounded=0;orthogonalLoop=1;jettySize=auto;html=1;entryX=0.75;entryY=1;entryDx=0;entryDy=0;fillColor=#b0e3e6;strokeColor=#0e8088;" edge="1" parent="1" source="0sg28JpC3CKvE0VFNH8c-32" target="0sg28JpC3CKvE0VFNH8c-52">
          <mxGeometry relative="1" as="geometry">
            <Array as="points">
              <mxPoint x="423" y="420" />
              <mxPoint x="842" y="420" />
            </Array>
          </mxGeometry>
        </mxCell>
        <mxCell id="0sg28JpC3CKvE0VFNH8c-139" style="edgeStyle=orthogonalEdgeStyle;rounded=0;orthogonalLoop=1;jettySize=auto;html=1;entryX=0.25;entryY=1;entryDx=0;entryDy=0;fillColor=#b0e3e6;strokeColor=#0e8088;" edge="1" parent="1" source="0sg28JpC3CKvE0VFNH8c-32" target="0sg28JpC3CKvE0VFNH8c-55">
          <mxGeometry relative="1" as="geometry">
            <Array as="points">
              <mxPoint x="423" y="432" />
              <mxPoint x="965" y="432" />
            </Array>
          </mxGeometry>
        </mxCell>
        <mxCell id="0sg28JpC3CKvE0VFNH8c-32" value="Модуль Интерфейса Читателя" style="rounded=0;whiteSpace=wrap;html=1;fillColor=#b0e3e6;strokeColor=#0e8088;" vertex="1" parent="1">
          <mxGeometry x="372" y="130" width="102" height="48" as="geometry" />
        </mxCell>
        <mxCell id="0sg28JpC3CKvE0VFNH8c-140" style="edgeStyle=orthogonalEdgeStyle;rounded=0;orthogonalLoop=1;jettySize=auto;html=1;entryX=0.479;entryY=0.008;entryDx=0;entryDy=0;fillColor=#b1ddf0;strokeColor=#10739e;entryPerimeter=0;" edge="1" parent="1" source="0sg28JpC3CKvE0VFNH8c-33" target="0sg28JpC3CKvE0VFNH8c-47">
          <mxGeometry relative="1" as="geometry">
            <Array as="points">
              <mxPoint x="552" y="335" />
              <mxPoint x="551" y="335" />
            </Array>
          </mxGeometry>
        </mxCell>
        <mxCell id="0sg28JpC3CKvE0VFNH8c-141" style="edgeStyle=orthogonalEdgeStyle;rounded=0;orthogonalLoop=1;jettySize=auto;html=1;entryX=0.5;entryY=0;entryDx=0;entryDy=0;fillColor=#b1ddf0;strokeColor=#10739e;" edge="1" parent="1" source="0sg28JpC3CKvE0VFNH8c-33" target="0sg28JpC3CKvE0VFNH8c-44">
          <mxGeometry relative="1" as="geometry">
            <Array as="points">
              <mxPoint x="552" y="220" />
              <mxPoint x="488" y="220" />
            </Array>
          </mxGeometry>
        </mxCell>
        <mxCell id="0sg28JpC3CKvE0VFNH8c-143" style="edgeStyle=orthogonalEdgeStyle;rounded=0;orthogonalLoop=1;jettySize=auto;html=1;entryX=0.25;entryY=0;entryDx=0;entryDy=0;fillColor=#b1ddf0;strokeColor=#10739e;" edge="1" parent="1" source="0sg28JpC3CKvE0VFNH8c-33" target="0sg28JpC3CKvE0VFNH8c-55">
          <mxGeometry relative="1" as="geometry">
            <Array as="points">
              <mxPoint x="552" y="288" />
              <mxPoint x="965" y="288" />
            </Array>
          </mxGeometry>
        </mxCell>
        <mxCell id="0sg28JpC3CKvE0VFNH8c-33" value="Модуль Интерфейса Бета-ридера" style="rounded=0;whiteSpace=wrap;html=1;fillColor=#dae8fc;strokeColor=#6c8ebf;" vertex="1" parent="1">
          <mxGeometry x="483" y="130" width="102" height="48" as="geometry" />
        </mxCell>
        <mxCell id="0sg28JpC3CKvE0VFNH8c-145" style="edgeStyle=orthogonalEdgeStyle;rounded=0;orthogonalLoop=1;jettySize=auto;html=1;fillColor=#d0cee2;strokeColor=#56517e;" edge="1" parent="1" source="0sg28JpC3CKvE0VFNH8c-34">
          <mxGeometry relative="1" as="geometry">
            <mxPoint x="684" y="492" as="targetPoint" />
            <Array as="points">
              <mxPoint x="684" y="492" />
            </Array>
          </mxGeometry>
        </mxCell>
        <mxCell id="0sg28JpC3CKvE0VFNH8c-146" style="edgeStyle=orthogonalEdgeStyle;rounded=0;orthogonalLoop=1;jettySize=auto;html=1;entryX=0.75;entryY=0;entryDx=0;entryDy=0;fillColor=#d0cee2;strokeColor=#56517e;" edge="1" parent="1" source="0sg28JpC3CKvE0VFNH8c-34" target="0sg28JpC3CKvE0VFNH8c-55">
          <mxGeometry relative="1" as="geometry">
            <Array as="points">
              <mxPoint x="684" y="240" />
              <mxPoint x="1016" y="240" />
            </Array>
          </mxGeometry>
        </mxCell>
        <mxCell id="0sg28JpC3CKvE0VFNH8c-149" style="edgeStyle=orthogonalEdgeStyle;rounded=0;orthogonalLoop=1;jettySize=auto;html=1;entryX=1;entryY=0.25;entryDx=0;entryDy=0;fillColor=#d0cee2;strokeColor=#56517e;" edge="1" parent="1" source="0sg28JpC3CKvE0VFNH8c-34" target="0sg28JpC3CKvE0VFNH8c-44">
          <mxGeometry relative="1" as="geometry">
            <Array as="points">
              <mxPoint x="684" y="274" />
            </Array>
          </mxGeometry>
        </mxCell>
        <mxCell id="0sg28JpC3CKvE0VFNH8c-34" value="Модуль Интерфейса Рекламодателя" style="rounded=0;whiteSpace=wrap;html=1;fillColor=#e1d5e7;strokeColor=#9673a6;" vertex="1" parent="1">
          <mxGeometry x="597" y="130" width="102" height="48" as="geometry" />
        </mxCell>
        <mxCell id="0sg28JpC3CKvE0VFNH8c-147" style="edgeStyle=orthogonalEdgeStyle;rounded=0;orthogonalLoop=1;jettySize=auto;html=1;entryX=0.49;entryY=0.001;entryDx=0;entryDy=0;fillColor=#fad9d5;strokeColor=#ae4132;entryPerimeter=0;" edge="1" parent="1" source="0sg28JpC3CKvE0VFNH8c-35" target="0sg28JpC3CKvE0VFNH8c-48">
          <mxGeometry relative="1" as="geometry">
            <Array as="points" />
          </mxGeometry>
        </mxCell>
        <mxCell id="0sg28JpC3CKvE0VFNH8c-148" style="edgeStyle=orthogonalEdgeStyle;rounded=0;orthogonalLoop=1;jettySize=auto;html=1;entryX=0.5;entryY=0;entryDx=0;entryDy=0;fillColor=#fad9d5;strokeColor=#ae4132;" edge="1" parent="1" source="0sg28JpC3CKvE0VFNH8c-35" target="0sg28JpC3CKvE0VFNH8c-55">
          <mxGeometry relative="1" as="geometry" />
        </mxCell>
        <mxCell id="0sg28JpC3CKvE0VFNH8c-35" value="Модуль Интерфейса Администратора" style="rounded=0;whiteSpace=wrap;html=1;fillColor=#f8cecc;strokeColor=#b85450;" vertex="1" parent="1">
          <mxGeometry x="879" y="130" width="102" height="48" as="geometry" />
        </mxCell>
        <mxCell id="0sg28JpC3CKvE0VFNH8c-44" value="Модуль Регистрации и Авторизации" style="rounded=0;whiteSpace=wrap;html=1;" vertex="1" parent="1">
          <mxGeometry x="437.25" y="262" width="102" height="48" as="geometry" />
        </mxCell>
        <mxCell id="0sg28JpC3CKvE0VFNH8c-45" value="Модуль Чтения&amp;nbsp;" style="rounded=0;whiteSpace=wrap;html=1;" vertex="1" parent="1">
          <mxGeometry x="379.5" y="492" width="102" height="48" as="geometry" />
        </mxCell>
        <mxCell id="0sg28JpC3CKvE0VFNH8c-46" value="Модуль Взаимодействия" style="rounded=0;whiteSpace=wrap;html=1;" vertex="1" parent="1">
          <mxGeometry x="300" y="346" width="102" height="48" as="geometry" />
        </mxCell>
        <mxCell id="0sg28JpC3CKvE0VFNH8c-47" value="Модуль Бета-чтения" style="rounded=0;whiteSpace=wrap;html=1;" vertex="1" parent="1">
          <mxGeometry x="502.5" y="492" width="102" height="48" as="geometry" />
        </mxCell>
        <mxCell id="0sg28JpC3CKvE0VFNH8c-48" value="Модуль Администрирования" style="rounded=0;whiteSpace=wrap;html=1;" vertex="1" parent="1">
          <mxGeometry x="867.75" y="492" width="127.5" height="48" as="geometry" />
        </mxCell>
        <mxCell id="0sg28JpC3CKvE0VFNH8c-49" value="Модуль Управления рекламы" style="rounded=0;whiteSpace=wrap;html=1;" vertex="1" parent="1">
          <mxGeometry x="622.5" y="492" width="102" height="48" as="geometry" />
        </mxCell>
        <mxCell id="0sg28JpC3CKvE0VFNH8c-50" value="Модуль Ведения Статистики" style="rounded=0;whiteSpace=wrap;html=1;" vertex="1" parent="1">
          <mxGeometry x="562.5" y="564" width="102" height="48" as="geometry" />
        </mxCell>
        <mxCell id="0sg28JpC3CKvE0VFNH8c-120" style="edgeStyle=orthogonalEdgeStyle;rounded=0;orthogonalLoop=1;jettySize=auto;html=1;entryX=0.5;entryY=0;entryDx=0;entryDy=0;" edge="1" parent="1" source="0sg28JpC3CKvE0VFNH8c-51" target="0sg28JpC3CKvE0VFNH8c-111">
          <mxGeometry relative="1" as="geometry" />
        </mxCell>
        <mxCell id="0sg28JpC3CKvE0VFNH8c-121" style="edgeStyle=orthogonalEdgeStyle;rounded=0;orthogonalLoop=1;jettySize=auto;html=1;entryX=0.5;entryY=0;entryDx=0;entryDy=0;" edge="1" parent="1" source="0sg28JpC3CKvE0VFNH8c-51" target="0sg28JpC3CKvE0VFNH8c-112">
          <mxGeometry relative="1" as="geometry" />
        </mxCell>
        <mxCell id="0sg28JpC3CKvE0VFNH8c-122" style="edgeStyle=orthogonalEdgeStyle;rounded=0;orthogonalLoop=1;jettySize=auto;html=1;entryX=0.5;entryY=0;entryDx=0;entryDy=0;" edge="1" parent="1" source="0sg28JpC3CKvE0VFNH8c-51" target="0sg28JpC3CKvE0VFNH8c-117">
          <mxGeometry relative="1" as="geometry" />
        </mxCell>
        <mxCell id="0sg28JpC3CKvE0VFNH8c-123" value="" style="edgeStyle=orthogonalEdgeStyle;rounded=0;orthogonalLoop=1;jettySize=auto;html=1;" edge="1" parent="1" source="0sg28JpC3CKvE0VFNH8c-51" target="0sg28JpC3CKvE0VFNH8c-114">
          <mxGeometry relative="1" as="geometry">
            <Array as="points">
              <mxPoint x="604.5" y="708" />
              <mxPoint x="604.5" y="708" />
            </Array>
          </mxGeometry>
        </mxCell>
        <mxCell id="0sg28JpC3CKvE0VFNH8c-124" style="edgeStyle=orthogonalEdgeStyle;rounded=0;orthogonalLoop=1;jettySize=auto;html=1;entryX=0.5;entryY=0;entryDx=0;entryDy=0;" edge="1" parent="1" source="0sg28JpC3CKvE0VFNH8c-51" target="0sg28JpC3CKvE0VFNH8c-118">
          <mxGeometry relative="1" as="geometry">
            <Array as="points">
              <mxPoint x="702.5" y="672" />
              <mxPoint x="702.5" y="700" />
            </Array>
          </mxGeometry>
        </mxCell>
        <mxCell id="0sg28JpC3CKvE0VFNH8c-125" style="edgeStyle=orthogonalEdgeStyle;rounded=0;orthogonalLoop=1;jettySize=auto;html=1;entryX=0.5;entryY=0;entryDx=0;entryDy=0;" edge="1" parent="1" source="0sg28JpC3CKvE0VFNH8c-51" target="0sg28JpC3CKvE0VFNH8c-116">
          <mxGeometry relative="1" as="geometry" />
        </mxCell>
        <mxCell id="0sg28JpC3CKvE0VFNH8c-127" style="edgeStyle=orthogonalEdgeStyle;rounded=0;orthogonalLoop=1;jettySize=auto;html=1;entryX=0.5;entryY=0;entryDx=0;entryDy=0;" edge="1" parent="1" source="0sg28JpC3CKvE0VFNH8c-51" target="0sg28JpC3CKvE0VFNH8c-119">
          <mxGeometry relative="1" as="geometry" />
        </mxCell>
        <mxCell id="0sg28JpC3CKvE0VFNH8c-128" style="edgeStyle=orthogonalEdgeStyle;rounded=0;orthogonalLoop=1;jettySize=auto;html=1;entryX=0.5;entryY=0;entryDx=0;entryDy=0;" edge="1" parent="1" source="0sg28JpC3CKvE0VFNH8c-51" target="0sg28JpC3CKvE0VFNH8c-115">
          <mxGeometry relative="1" as="geometry" />
        </mxCell>
        <mxCell id="0sg28JpC3CKvE0VFNH8c-51" value="Модуль Базы Данных" style="rounded=0;whiteSpace=wrap;html=1;" vertex="1" parent="1">
          <mxGeometry x="562.5" y="648" width="102" height="48" as="geometry" />
        </mxCell>
        <mxCell id="0sg28JpC3CKvE0VFNH8c-52" value="Модуль Оплаты и Монетизации" style="rounded=0;whiteSpace=wrap;html=1;" vertex="1" parent="1">
          <mxGeometry x="765.75" y="346" width="102" height="48" as="geometry" />
        </mxCell>
        <mxCell id="0sg28JpC3CKvE0VFNH8c-54" value="Модуль Публикации и Управления Текстами&amp;nbsp;" style="rounded=0;whiteSpace=wrap;html=1;" vertex="1" parent="1">
          <mxGeometry x="258" y="492" width="102" height="60" as="geometry" />
        </mxCell>
        <mxCell id="0sg28JpC3CKvE0VFNH8c-55" value="Модуль Технической поддержки" style="rounded=0;whiteSpace=wrap;html=1;" vertex="1" parent="1">
          <mxGeometry x="939" y="346" width="102" height="48" as="geometry" />
        </mxCell>
        <mxCell id="0sg28JpC3CKvE0VFNH8c-56" value="Модуль Управления Уведомлений" style="rounded=0;whiteSpace=wrap;html=1;" vertex="1" parent="1">
          <mxGeometry x="577.5" y="346" width="102" height="48" as="geometry" />
        </mxCell>
        <mxCell id="0sg28JpC3CKvE0VFNH8c-82" value="" style="endArrow=classic;startArrow=classic;html=1;rounded=0;exitX=0;exitY=0.75;exitDx=0;exitDy=0;" edge="1" parent="1" source="0sg28JpC3CKvE0VFNH8c-50">
          <mxGeometry width="50" height="50" relative="1" as="geometry">
            <mxPoint x="262.5" y="602" as="sourcePoint" />
            <mxPoint x="312.5" y="552" as="targetPoint" />
            <Array as="points">
              <mxPoint x="312.5" y="600" />
            </Array>
          </mxGeometry>
        </mxCell>
        <mxCell id="0sg28JpC3CKvE0VFNH8c-83" value="" style="endArrow=classic;startArrow=classic;html=1;rounded=0;exitX=0;exitY=0.5;exitDx=0;exitDy=0;" edge="1" parent="1" source="0sg28JpC3CKvE0VFNH8c-50">
          <mxGeometry width="50" height="50" relative="1" as="geometry">
            <mxPoint x="382.5" y="590" as="sourcePoint" />
            <mxPoint x="432.5" y="540" as="targetPoint" />
            <Array as="points">
              <mxPoint x="432.5" y="588" />
            </Array>
          </mxGeometry>
        </mxCell>
        <mxCell id="0sg28JpC3CKvE0VFNH8c-84" value="" style="endArrow=classic;startArrow=classic;html=1;rounded=0;exitX=0.25;exitY=0;exitDx=0;exitDy=0;" edge="1" parent="1" source="0sg28JpC3CKvE0VFNH8c-50">
          <mxGeometry width="50" height="50" relative="1" as="geometry">
            <mxPoint x="538.5" y="590" as="sourcePoint" />
            <mxPoint x="588.5" y="540" as="targetPoint" />
          </mxGeometry>
        </mxCell>
        <mxCell id="0sg28JpC3CKvE0VFNH8c-85" value="" style="endArrow=classic;startArrow=classic;html=1;rounded=0;exitX=0.25;exitY=0;exitDx=0;exitDy=0;" edge="1" parent="1">
          <mxGeometry width="50" height="50" relative="1" as="geometry">
            <mxPoint x="634.5" y="564" as="sourcePoint" />
            <mxPoint x="634.5" y="540" as="targetPoint" />
          </mxGeometry>
        </mxCell>
        <mxCell id="0sg28JpC3CKvE0VFNH8c-86" value="" style="endArrow=classic;startArrow=classic;html=1;rounded=0;entryX=0.5;entryY=1;entryDx=0;entryDy=0;exitX=1;exitY=0.5;exitDx=0;exitDy=0;" edge="1" parent="1" source="0sg28JpC3CKvE0VFNH8c-50" target="0sg28JpC3CKvE0VFNH8c-48">
          <mxGeometry width="50" height="50" relative="1" as="geometry">
            <mxPoint x="658.5" y="590" as="sourcePoint" />
            <mxPoint x="708.5" y="540" as="targetPoint" />
            <Array as="points">
              <mxPoint x="931.5" y="588" />
            </Array>
          </mxGeometry>
        </mxCell>
        <mxCell id="0sg28JpC3CKvE0VFNH8c-87" value="" style="endArrow=classic;startArrow=classic;html=1;rounded=0;entryX=0.5;entryY=1;entryDx=0;entryDy=0;" edge="1" parent="1" target="0sg28JpC3CKvE0VFNH8c-50">
          <mxGeometry width="50" height="50" relative="1" as="geometry">
            <mxPoint x="614" y="648" as="sourcePoint" />
            <mxPoint x="613.31" y="706" as="targetPoint" />
          </mxGeometry>
        </mxCell>
        <mxCell id="0sg28JpC3CKvE0VFNH8c-111" value="БД пользовательских профилей" style="shape=datastore;whiteSpace=wrap;html=1;" vertex="1" parent="1">
          <mxGeometry x="238.5" y="708" width="96" height="72" as="geometry" />
        </mxCell>
        <mxCell id="0sg28JpC3CKvE0VFNH8c-112" value="БД Фанфиков" style="shape=datastore;whiteSpace=wrap;html=1;" vertex="1" parent="1">
          <mxGeometry x="345.75" y="708" width="82.5" height="72" as="geometry" />
        </mxCell>
        <mxCell id="0sg28JpC3CKvE0VFNH8c-114" value="БД Подписок и Подписчиков" style="shape=datastore;whiteSpace=wrap;html=1;" vertex="1" parent="1">
          <mxGeometry x="553.5" y="720" width="102" height="60" as="geometry" />
        </mxCell>
        <mxCell id="0sg28JpC3CKvE0VFNH8c-115" value="БД Комментариев и Оценок" style="shape=datastore;whiteSpace=wrap;html=1;" vertex="1" parent="1">
          <mxGeometry x="759.75" y="714" width="108" height="72" as="geometry" />
        </mxCell>
        <mxCell id="0sg28JpC3CKvE0VFNH8c-116" value="БД Бета-ридеров" style="shape=datastore;whiteSpace=wrap;html=1;" vertex="1" parent="1">
          <mxGeometry x="970.5" y="726" width="75" height="60" as="geometry" />
        </mxCell>
        <mxCell id="0sg28JpC3CKvE0VFNH8c-117" value="БД Рекламных Материалов" style="shape=datastore;whiteSpace=wrap;html=1;" vertex="1" parent="1">
          <mxGeometry x="438" y="720" width="100.5" height="60" as="geometry" />
        </mxCell>
        <mxCell id="0sg28JpC3CKvE0VFNH8c-118" value="БД Уведомлений" style="shape=datastore;whiteSpace=wrap;html=1;" vertex="1" parent="1">
          <mxGeometry x="664.5" y="720" width="75" height="60" as="geometry" />
        </mxCell>
        <mxCell id="0sg28JpC3CKvE0VFNH8c-119" value="БД Пожертвований" style="shape=datastore;whiteSpace=wrap;html=1;" vertex="1" parent="1">
          <mxGeometry x="874.5" y="726" width="84" height="60" as="geometry" />
        </mxCell>
        <mxCell id="0sg28JpC3CKvE0VFNH8c-134" style="edgeStyle=orthogonalEdgeStyle;rounded=0;orthogonalLoop=1;jettySize=auto;html=1;entryX=0.819;entryY=1.012;entryDx=0;entryDy=0;entryPerimeter=0;exitX=0.25;exitY=1;exitDx=0;exitDy=0;fillColor=#fad7ac;strokeColor=#b46504;" edge="1" parent="1" source="0sg28JpC3CKvE0VFNH8c-31" target="0sg28JpC3CKvE0VFNH8c-55">
          <mxGeometry relative="1" as="geometry">
            <mxPoint x="288" y="180" as="sourcePoint" />
            <Array as="points">
              <mxPoint x="284" y="444" />
              <mxPoint x="1022" y="444" />
            </Array>
          </mxGeometry>
        </mxCell>
        <mxCell id="0sg28JpC3CKvE0VFNH8c-135" style="edgeStyle=orthogonalEdgeStyle;rounded=0;orthogonalLoop=1;jettySize=auto;html=1;entryX=0.432;entryY=-0.025;entryDx=0;entryDy=0;entryPerimeter=0;fillColor=#b0e3e6;strokeColor=#0e8088;" edge="1" parent="1" source="0sg28JpC3CKvE0VFNH8c-32" target="0sg28JpC3CKvE0VFNH8c-45">
          <mxGeometry relative="1" as="geometry" />
        </mxCell>
        <mxCell id="0sg28JpC3CKvE0VFNH8c-150" value="" style="endArrow=classic;startArrow=classic;html=1;rounded=0;entryX=0;entryY=0.25;entryDx=0;entryDy=0;exitX=1;exitY=0.25;exitDx=0;exitDy=0;" edge="1" parent="1" source="0sg28JpC3CKvE0VFNH8c-46" target="0sg28JpC3CKvE0VFNH8c-56">
          <mxGeometry width="50" height="50" relative="1" as="geometry">
            <mxPoint x="408" y="358" as="sourcePoint" />
            <mxPoint x="446" y="312" as="targetPoint" />
          </mxGeometry>
        </mxCell>
        <mxCell id="0sg28JpC3CKvE0VFNH8c-151" value="" style="endArrow=classic;startArrow=classic;html=1;rounded=0;entryX=0;entryY=0.5;entryDx=0;entryDy=0;exitX=1;exitY=0.5;exitDx=0;exitDy=0;" edge="1" parent="1" source="0sg28JpC3CKvE0VFNH8c-56" target="0sg28JpC3CKvE0VFNH8c-52">
          <mxGeometry width="50" height="50" relative="1" as="geometry">
            <mxPoint x="672" y="374" as="sourcePoint" />
            <mxPoint x="722" y="324" as="targetPoint" />
          </mxGeometry>
        </mxCell>
        <mxCell id="0sg28JpC3CKvE0VFNH8c-152" value="" style="endArrow=classic;startArrow=classic;html=1;rounded=0;entryX=0;entryY=0.5;entryDx=0;entryDy=0;exitX=0.5;exitY=0;exitDx=0;exitDy=0;" edge="1" parent="1" source="0sg28JpC3CKvE0VFNH8c-56" target="0sg28JpC3CKvE0VFNH8c-55">
          <mxGeometry width="50" height="50" relative="1" as="geometry">
            <mxPoint x="624" y="350" as="sourcePoint" />
            <mxPoint x="674" y="300" as="targetPoint" />
            <Array as="points">
              <mxPoint x="629" y="312" />
              <mxPoint x="900" y="312" />
              <mxPoint x="900" y="370" />
            </Array>
          </mxGeometry>
        </mxCell>
        <mxCell id="0sg28JpC3CKvE0VFNH8c-153" value="" style="endArrow=classic;startArrow=classic;html=1;rounded=0;exitX=0;exitY=0.75;exitDx=0;exitDy=0;entryX=0.5;entryY=1;entryDx=0;entryDy=0;" edge="1" parent="1" source="0sg28JpC3CKvE0VFNH8c-56" target="0sg28JpC3CKvE0VFNH8c-44">
          <mxGeometry width="50" height="50" relative="1" as="geometry">
            <mxPoint x="432" y="374" as="sourcePoint" />
            <mxPoint x="482" y="324" as="targetPoint" />
            <Array as="points">
              <mxPoint x="488" y="382" />
            </Array>
          </mxGeometry>
        </mxCell>
        <mxCell id="0sg28JpC3CKvE0VFNH8c-154" value="&lt;font style=&quot;font-size: 20px;&quot;&gt;Архитектура&lt;/font&gt;" style="text;html=1;align=center;verticalAlign=middle;resizable=0;points=[];autosize=1;strokeColor=none;fillColor=none;" vertex="1" parent="1">
          <mxGeometry x="24" y="12" width="144" height="36" as="geometry" />
        </mxCell>
      </root>
    </mxGraphModel>
  </diagram>
</mxfile>
